<?xml version="1.0" encoding="UTF-8"?>
<svg id="katman_1" data-name="katman 1" xmlns="http://www.w3.org/2000/svg" version="1.1" viewBox="0 0 841.89 595.28">
  <defs>
    <style>
      .cls-1 {
        fill: rgba(255, 215, 0, 1);
        stroke-width: 0px;
      }
    </style>
  </defs>
  <path class="cls-1" d="M385.32,330.65l62.78-144.02v-1.85h-57.24l-55.39,132.94s-1.85,1.85-1.85,0v-1.85l-1.85-132.94c.11-.91-.54-1.74-1.45-1.85-.13-.02-.26-.02-.39,0h-53.55c-.91-.11-1.74.54-1.85,1.45-.02.13-.02.26,0,.39h0l3.69,197.57c-.11.91.54,1.74,1.45,1.85.13.02.26.02.39,0h66.47c.91-.11,1.74.54,1.85,1.45.02.13.02.26,0,.39h0l-59.09,177.26,96.01-230.81Z"/>
  <polygon class="cls-1" points="298.54 472.82 329.93 398.97 320.7 398.97 298.54 472.82"/>
  <polygon class="cls-1" points="527.5 99.84 492.42 199.55 501.65 197.7 527.5 99.84"/>
  <path class="cls-1" d="M520.11,206.94c-14.36-.38-28.69,1.49-42.47,5.54q-1.85,0-3.69-1.85v-1.85l55.39-175.41s-83.09,199.42-88.63,206.8h0q0,1.85-1.85,3.69l-9.23,22.16c-3.11,6.6-2.41,14.38,1.85,20.31,3.69,5.54,14.77,18.46,31.39,36.93,9.23,9.23,12.93,18.46,9.23,25.85l-9.23,24c-1.85,5.54-5.54,7.39-12.93,7.39s-11.08-1.85-9.23-7.39l16.62-44.31q0-1.85-1.85-3.69h-48.01q-1.85,0-1.85,1.85l-18.46,46.16c-11.08,25.85,7.39,38.78,51.7,38.78s75.7-14.77,84.94-42.47l9.23-25.85c3.1-7.86,2.42-16.71-1.85-24-9.58-13.58-20.74-25.98-33.24-36.93-9.23-9.23-12.93-18.46-9.23-25.85h0l3.69-12.93h0c1.46-6.87,7.77-11.6,14.77-11.08,5.54,0,7.39,1.85,5.54,5.54l-12.93,31.39q0,1.85,1.85,3.69h48.01q1.85,0,1.85-1.85l11.08-31.39c11.08-22.16-3.69-33.24-42.47-33.24Z"/>
</svg>